# xmcd
#
# Track frame offsets: 
#        150
#        16454
#        33891
#        58197
#        83454
#        96333
#        120315
#        141329
#        160246
#        188702
#        204722
#        222508
#
# Disc length: 3623 seconds
#
# Revision: 0
# Processed by: cddbd v1.4PL0 Copyright (c) Steve Scherf et al.
# Submitted via: ExactAudioCopy v0.90b4
#
DISCID=a40e250c
DTITLE=Downtown Blues Band - Live
DYEAR=1999
DGENRE=Blues
TTITLE0=By My Side
TTITLE1=Gamblin' Man
TTITLE2=Stop
TTITLE3=The Thrill Is Gone
TTITLE4=Time Schedule
TTITLE5=Wheel Of Time
TTITLE6=Fit To Serve
TTITLE7=King Bee
TTITLE8=Knockin'
TTITLE9=Bite Of A Monkey
TTITLE10=Let Us Ride
TTITLE11=When A Blind Man Cries
EXTD=
EXTT0=
EXTT1=
EXTT2=
EXTT3=
EXTT4=
EXTT5=
EXTT6=
EXTT7=
EXTT8=
EXTT9=
EXTT10=
EXTT11=
PLAYORDER=
